<?xml version="1.0" encoding="UTF-8" standalone="no"?>
<svg
   xmlns:serif="http://www.serif.com/"
   xmlns:dc="http://purl.org/dc/elements/1.1/"
   xmlns:cc="http://creativecommons.org/ns#"
   xmlns:rdf="http://www.w3.org/1999/02/22-rdf-syntax-ns#"
   xmlns:svg="http://www.w3.org/2000/svg"
   xmlns="http://www.w3.org/2000/svg"
   xmlns:sodipodi="http://sodipodi.sourceforge.net/DTD/sodipodi-0.dtd"
   xmlns:inkscape="http://www.inkscape.org/namespaces/inkscape"
   width="100%"
   height="100%"
   viewBox="0 0 100 100"
   version="1.1"
   xml:space="preserve"
   style="fill-rule:evenodd;clip-rule:evenodd;stroke-linejoin:round;stroke-miterlimit:1.41421;"
   id="svg36"
   sodipodi:docname="5x.svg"
   inkscape:version="1.0.2-2 (e86c870879, 2021-01-15)"><metadata
   id="metadata42"><rdf:RDF><cc:Work
       rdf:about=""><dc:format>image/svg+xml</dc:format><dc:type
         rdf:resource="http://purl.org/dc/dcmitype/StillImage" /></cc:Work></rdf:RDF></metadata><defs
   id="defs40" /><sodipodi:namedview
   pagecolor="#ffffff"
   bordercolor="#666666"
   borderopacity="1"
   objecttolerance="10"
   gridtolerance="10"
   guidetolerance="10"
   inkscape:pageopacity="0"
   inkscape:pageshadow="2"
   inkscape:window-width="1278"
   inkscape:window-height="1351"
   id="namedview38"
   showgrid="false"
   inkscape:zoom="10.08"
   inkscape:cx="50"
   inkscape:cy="50"
   inkscape:window-x="1342"
   inkscape:window-y="0"
   inkscape:window-maximized="0"
   inkscape:current-layer="svg36" />
    <g
   id="_6-Diamond"
   serif:id="6 Diamond">
        <g
   transform="matrix(0.539996,0.539996,-0.555556,0.555556,51.4781,-4.07742)"
   id="g29">
            <rect
   x="2.407"
   y="5"
   width="92.593"
   height="90"
   style="fill:rgb(0,147,59);"
   id="rect27" />
        </g>
        <g
   transform="matrix(1.26802,0,0,1.26802,21.9029,39.5201)"
   id="g33">
            
        </g>
    </g>
<path
   d="m 41.431854,59.347855 c 0.3689,2.0182 1.0742,3.5753 2.1159,4.6712 1.0416,1.0959 2.5607,1.6439 4.5573,1.6439 2.3003,0 4.0527,-0.8084 5.2571,-2.4251 1.2045,-1.6168 1.8067,-3.6513 1.8067,-6.1036 0,-2.4088 -0.5643,-4.4433 -1.6927,-6.1035 -1.1285,-1.6601 -2.8863,-2.4902 -5.2735,-2.4902 -1.1284,0 -2.105,0.141 -2.9297,0.4232 -1.454,0.5208 -2.5499,1.4865 -3.2877,2.8971 l -8.3334,-0.3906 3.3204,-26.0742 h 26.0091 v 7.8776 h -19.3034 l -1.6927,10.319 c 1.4323,-0.9332 2.5499,-1.5517 3.3528,-1.8555 1.3455,-0.4991 2.984,-0.7487 4.9154,-0.7487 3.9063,0 7.3134,1.3129 10.2214,3.9388 2.9079,2.6259 4.3619,6.4453 4.3619,11.4583 0,4.362 -1.3997,8.2574 -4.1992,11.6862 -2.7995,3.4289 -6.9878,5.1433 -12.5651,5.1433 -4.4922,0 -8.1814,-1.2045 -11.0677,-3.6133 -2.8863,-2.4089 -4.4922,-5.8268 -4.8177,-10.2539 z"
   style="clip-rule:evenodd;fill:#ffffff;fill-rule:nonzero;stroke-linejoin:round;stroke-miterlimit:1.41421"
   id="path67" /></svg>
